# This file uses centimeters as units for non-parametric coordinates.

mtllib Immovable_Pillar.mtl
g default
v -0.500000 -2.250000 0.500000
v 0.500000 -2.250000 0.500000
v -0.500000 2.250000 0.500000
v 0.500000 2.250000 0.500000
v -0.500000 2.250000 -0.500000
v 0.500000 2.250000 -0.500000
v -0.500000 -2.250000 -0.500000
v 0.500000 -2.250000 -0.500000
v -0.500000 -2.250000 0.052877
vt 0.823345 0.646464
vt 0.823345 0.999369
vt 0.744921 0.999369
vt 0.744921 0.646464
vt 0.341005 0.165850
vt 0.451002 0.165850
vt 0.451002 0.275847
vt 0.341005 0.275847
vt 0.903000 0.646464
vt 0.903000 0.999369
vt 0.824577 0.999369
vt 0.824577 0.646464
vt 0.982292 0.646464
vt 0.982292 0.999369
vt 0.903869 0.999369
vt 0.903869 0.646464
vt 0.708520 0.646464
vt 0.743585 0.646464
vt 0.743585 0.999369
vt 0.665162 0.999369
vt 0.665162 0.646464
vt 0.341005 0.215032
vt 0.341005 0.275847
vt 0.451002 0.275847
vt 0.451002 0.165850
vt 0.341005 0.165850
vn 0.000000 0.000000 1.000000
vn 0.000000 0.000000 1.000000
vn 0.000000 0.000000 1.000000
vn 0.000000 0.000000 1.000000
vn 0.000000 1.000000 0.000000
vn 0.000000 1.000000 0.000000
vn 0.000000 1.000000 0.000000
vn 0.000000 1.000000 0.000000
vn 0.000000 0.000000 -1.000000
vn 0.000000 0.000000 -1.000000
vn 0.000000 0.000000 -1.000000
vn 0.000000 0.000000 -1.000000
vn 1.000000 0.000000 0.000000
vn 1.000000 0.000000 0.000000
vn 1.000000 0.000000 0.000000
vn 1.000000 0.000000 0.000000
vn -1.000000 0.000000 0.000000
vn -1.000000 0.000000 0.000000
vn -1.000000 0.000000 0.000000
vn -1.000000 0.000000 0.000000
vn -1.000000 0.000000 0.000000
vn 0.000000 -1.000000 0.000000
vn 0.000000 -1.000000 0.000000
vn 0.000000 -1.000000 0.000000
vn 0.000000 -1.000000 0.000000
vn 0.000000 -1.000000 0.000000
s off
g Immovable_Pillar
usemtl initialShadingGroup
f 2/1/1 4/2/2 3/3/3 1/4/4
f 3/5/5 4/6/6 6/7/7 5/8/8
f 7/9/9 5/10/10 6/11/11 8/12/12
f 8/13/13 6/14/14 4/15/15 2/16/16
f 9/17/17 1/18/18 3/19/19 5/20/20 7/21/21
f 9/22/22 7/23/23 8/24/24 2/25/25 1/26/26
