# This file uses centimeters as units for non-parametric coordinates.

mtllib Pillar.mtl
g default
v -0.500000 -2.250000 0.500000
v 0.500000 -2.250000 0.500000
v -0.500000 2.250000 0.500000
v 0.500000 2.250000 0.500000
v -0.500000 2.250000 -0.500000
v 0.500000 2.250000 -0.500000
v -0.500000 -2.250000 -0.500000
v 0.500000 -2.250000 -0.500000
v -0.500000 -2.250000 0.052877
vt 0.504209 0.288596
vt 0.504209 0.641501
vt 0.425786 0.641501
vt 0.425786 0.288596
vt 0.573379 0.165394
vt 0.683376 0.165394
vt 0.683376 0.275390
vt 0.573379 0.275390
vt 0.583865 0.288596
vt 0.583865 0.641501
vt 0.505442 0.641501
vt 0.505442 0.288597
vt 0.663157 0.288596
vt 0.663157 0.641501
vt 0.584734 0.641501
vt 0.584734 0.288596
vt 0.389385 0.288596
vt 0.424450 0.288596
vt 0.424450 0.641501
vt 0.346027 0.641501
vt 0.346027 0.288596
vt 0.573379 0.214576
vt 0.573379 0.275390
vt 0.683376 0.275390
vt 0.683376 0.165394
vt 0.573379 0.165394
vn 0.000000 0.000000 1.000000
vn 0.000000 0.000000 1.000000
vn 0.000000 0.000000 1.000000
vn 0.000000 0.000000 1.000000
vn 0.000000 1.000000 0.000000
vn 0.000000 1.000000 0.000000
vn 0.000000 1.000000 0.000000
vn 0.000000 1.000000 0.000000
vn 0.000000 0.000000 -1.000000
vn 0.000000 0.000000 -1.000000
vn 0.000000 0.000000 -1.000000
vn 0.000000 0.000000 -1.000000
vn 1.000000 0.000000 0.000000
vn 1.000000 0.000000 0.000000
vn 1.000000 0.000000 0.000000
vn 1.000000 0.000000 0.000000
vn -1.000000 0.000000 0.000000
vn -1.000000 0.000000 0.000000
vn -1.000000 0.000000 0.000000
vn -1.000000 0.000000 0.000000
vn -1.000000 0.000000 0.000000
vn 0.000000 -1.000000 0.000000
vn 0.000000 -1.000000 0.000000
vn 0.000000 -1.000000 0.000000
vn 0.000000 -1.000000 0.000000
vn 0.000000 -1.000000 0.000000
s off
g Pillar
usemtl initialShadingGroup
f 2/1/1 4/2/2 3/3/3 1/4/4
f 3/5/5 4/6/6 6/7/7 5/8/8
f 7/9/9 5/10/10 6/11/11 8/12/12
f 8/13/13 6/14/14 4/15/15 2/16/16
f 9/17/17 1/18/18 3/19/19 5/20/20 7/21/21
f 9/22/22 7/23/23 8/24/24 2/25/25 1/26/26
