# This file uses centimeters as units for non-parametric coordinates.

mtllib Unbreakable_Pillar.mtl
g default
v -0.500000 -2.250000 0.500000
v 0.500000 -2.250000 0.500000
v -0.500000 2.250000 0.500000
v 0.500000 2.250000 0.500000
v -0.500000 2.250000 -0.500000
v 0.500000 2.250000 -0.500000
v -0.500000 -2.250000 -0.500000
v 0.500000 -2.250000 -0.500000
v -0.500000 -2.250000 0.052877
vt 0.184522 0.288618
vt 0.184522 0.641523
vt 0.106098 0.641523
vt 0.106098 0.288618
vt 0.457550 0.165684
vt 0.567547 0.165684
vt 0.567547 0.275681
vt 0.457550 0.275681
vt 0.264177 0.288618
vt 0.264177 0.641523
vt 0.185754 0.641523
vt 0.185754 0.288618
vt 0.343469 0.288618
vt 0.343469 0.641523
vt 0.265046 0.641523
vt 0.265046 0.288618
vt 0.069697 0.288618
vt 0.104762 0.288618
vt 0.104762 0.641523
vt 0.026339 0.641523
vt 0.026339 0.288618
vt 0.457550 0.214866
vt 0.457550 0.275681
vt 0.567547 0.275681
vt 0.567547 0.165684
vt 0.457550 0.165684
vn 0.000000 0.000000 1.000000
vn 0.000000 0.000000 1.000000
vn 0.000000 0.000000 1.000000
vn 0.000000 0.000000 1.000000
vn 0.000000 1.000000 0.000000
vn 0.000000 1.000000 0.000000
vn 0.000000 1.000000 0.000000
vn 0.000000 1.000000 0.000000
vn 0.000000 0.000000 -1.000000
vn 0.000000 0.000000 -1.000000
vn 0.000000 0.000000 -1.000000
vn 0.000000 0.000000 -1.000000
vn 1.000000 0.000000 0.000000
vn 1.000000 0.000000 0.000000
vn 1.000000 0.000000 0.000000
vn 1.000000 0.000000 0.000000
vn -1.000000 0.000000 0.000000
vn -1.000000 0.000000 0.000000
vn -1.000000 0.000000 0.000000
vn -1.000000 0.000000 0.000000
vn -1.000000 0.000000 0.000000
vn 0.000000 -1.000000 0.000000
vn 0.000000 -1.000000 0.000000
vn 0.000000 -1.000000 0.000000
vn 0.000000 -1.000000 0.000000
vn 0.000000 -1.000000 0.000000
s off
g Unbreakable_Pillar
usemtl initialShadingGroup
f 2/1/1 4/2/2 3/3/3 1/4/4
f 3/5/5 4/6/6 6/7/7 5/8/8
f 7/9/9 5/10/10 6/11/11 8/12/12
f 8/13/13 6/14/14 4/15/15 2/16/16
f 9/17/17 1/18/18 3/19/19 5/20/20 7/21/21
f 9/22/22 7/23/23 8/24/24 2/25/25 1/26/26
